# xmcd CD database file
#
# Track frame offsets:
#	150
#	38808
#	57418
#	108837
#	156759
#	185404
#	221026
#
# Disc length: 3185 seconds
#
# Revision: 1
# Processed by: cddbd v1.5.2PL0 Copyright (c) Steve Scherf et al.
# Submitted via: CDex 1.51
#
DISCID=5c0c6f07
DTITLE=Christof Thewes Quintett - plays the music of charles mingus
DYEAR=2006
DGENRE=Jazz
TTITLE0=orange was the colour of her dress, then blue silk - opus four - free cell block f'tis nazi u.s.a.
TTITLE1=Goodbye pork pie hat
TTITLE2=canon - better git hit in your soul - slop
TTITLE3=fables of faubus - phithecantropus erectus
TTITLE4=o.p. - boogie stop shuffle
TTITLE5=haitian fight song - noddin' ya head
TTITLE6=oh lord
EXTD=YEAR: 2006
EXTT0=
EXTT1=
EXTT2=
EXTT3=
EXTT4=
EXTT5=
EXTT6=
PLAYORDER=
